<?xml version="1.0" standalone="no"?>
<!DOCTYPE svg PUBLIC "-//W3C//DTD SVG 20010904//EN"
 "http://www.w3.org/TR/2001/REC-SVG-20010904/DTD/svg10.dtd">
<svg version="1.0" xmlns="http://www.w3.org/2000/svg"
 width="2803.000000pt" height="2803.000000pt" viewBox="0 0 2803.000000 2803.000000"
 preserveAspectRatio="xMidYMid meet">
<metadata>
Created by potrace 1.14, written by Peter Selinger 2001-2017
</metadata>
<g transform="translate(0.000000,2803.000000) scale(0.100000,-0.100000)"
fill="#000000" stroke="none">
<path d="M8290 27545 l0 -95 -190 0 -190 0 0 -95 0 -95 -190 0 -190 0 0 -95 0
-95 -95 0 -95 0 0 -95 0 -95 -95 0 -95 0 0 -95 0 -95 -95 0 -95 0 0 -10355 0
-10355 95 0 95 0 0 -95 0 -95 95 0 95 0 0 -95 0 -95 95 0 95 0 0 -95 0 -95
190 0 190 0 0 -95 0 -95 190 0 190 0 0 -95 0 -95 760 0 760 0 0 95 0 95 190 0
190 0 0 95 0 95 190 0 190 0 0 95 0 95 95 0 95 0 0 95 0 95 95 0 95 0 0 95 0
95 95 0 95 0 0 285 0 285 190 0 190 0 0 95 0 95 285 0 285 0 0 95 0 95 380 0
380 0 0 95 0 95 285 0 285 0 0 95 0 95 285 0 285 0 0 95 0 95 285 0 285 0 0
95 0 95 285 0 285 0 0 95 0 95 380 0 380 0 0 95 0 95 285 0 285 0 0 95 0 95
190 0 190 0 0 -3420 0 -3420 95 0 95 0 0 -95 0 -95 95 0 95 0 0 -95 0 -95 95
0 95 0 0 -95 0 -95 190 0 190 0 0 -95 0 -95 190 0 190 0 0 -95 0 -95 760 0
760 0 0 95 0 95 190 0 190 0 0 95 0 95 190 0 190 0 0 95 0 95 95 0 95 0 0 95
0 95 95 0 95 0 0 95 0 95 95 0 95 0 0 10355 0 10355 -95 0 -95 0 0 95 0 95
-95 0 -95 0 0 95 0 95 -95 0 -95 0 0 95 0 95 -190 0 -190 0 0 95 0 95 -190 0
-190 0 0 95 0 95 -760 0 -760 0 0 -95 0 -95 -190 0 -190 0 0 -95 0 -95 -190 0
-190 0 0 -95 0 -95 -95 0 -95 0 0 -95 0 -95 -95 0 -95 0 0 -95 0 -95 -95 0
-95 0 0 -285 0 -285 -190 0 -190 0 0 -95 0 -95 -285 0 -285 0 0 -95 0 -95
-380 0 -380 0 0 -95 0 -95 -285 0 -285 0 0 -95 0 -95 -285 0 -285 0 0 -95 0
-95 -285 0 -285 0 0 -95 0 -95 -285 0 -285 0 0 -95 0 -95 -380 0 -380 0 0 -95
0 -95 -285 0 -285 0 0 -95 0 -95 -190 0 -190 0 0 3420 0 3420 -95 0 -95 0 0
95 0 95 -95 0 -95 0 0 95 0 95 -95 0 -95 0 0 95 0 95 -190 0 -190 0 0 95 0 95
-190 0 -190 0 0 95 0 95 -760 0 -760 0 0 -95z m8550 -13110 l0 -2945 -190 0
-190 0 0 -95 0 -95 -285 0 -285 0 0 -95 0 -95 -380 0 -380 0 0 -95 0 -95 -285
0 -285 0 0 -95 0 -95 -285 0 -285 0 0 -95 0 -95 -285 0 -285 0 0 -95 0 -95
-285 0 -285 0 0 -95 0 -95 -380 0 -380 0 0 -95 0 -95 -285 0 -285 0 0 -95 0
-95 -190 0 -190 0 0 2945 0 2945 190 0 190 0 0 95 0 95 285 0 285 0 0 95 0 95
380 0 380 0 0 95 0 95 285 0 285 0 0 95 0 95 285 0 285 0 0 95 0 95 285 0 285
0 0 95 0 95 285 0 285 0 0 95 0 95 380 0 380 0 0 95 0 95 285 0 285 0 0 95 0
95 190 0 190 0 0 -2945z"/>
</g>
</svg>
